<svg width="8.9333in" height="8.0333in" version="1.1" viewBox="0 0 804 723" xmlns="http://www.w3.org/2000/svg">
 <path id="Selection" d="m543 5.52c23.54-3.73 47.42 5.45 67 17.92 6.7 4.26 17.17 14.36 23 16.57 7.73 2.93 17.47-3.03 25-5.29l12-2.72c17.05-3.34 47.38-6.11 53.95 15 1.18 3.81 1.09 7.07 1.05 11-0.18 15.8-9.48 28.98-20.04 40-4.1 4.29-15.46 12.88-16.44 18-0.71 3.73 2.13 8.83 3.9 12 3.56 6.35 6.02 11.11 8.53 18 5.62 15.48 9.24 41.48 9.05 58l-3.59 26c-3.78 22.56-2.01 20.25-10.1 43-7.76 21.81-14.35 27.02-16.13 52-0.23 3.28 1.74 18.27 4.34 24 9.31 20.54 60.82 53.87 63.4 57 0 0 23.15 31 23.15 31s15.78 32 15.78 32c4.97 11.62 10 26.28 10.15 39v43c-0.27 22.57-14.02 51.16-31 65.7-12.1 10.36-36.5 23.12-51 31.16-16.95 9.4-42.26 20.05-61 24.99 0 0-26 5.15-26 5.15l-39 8.42-54 12.19-62 10.11-26 2.44-30 2.84-23 1.92-21 1.04-28 1.04-30.31 0.69-48.14-1.42-42.55-3.84-20-2.86s-21-4.14-21-4.14l-43-10.41c-19.17-5.89-42.71-10.75-60-20.33-7.42-4.12-13.96-11.65-20-17.69-14.45-14.45-22.99-22.54-32.68-41-3.66-6.98-12.22-26.62-14.16-34-4.58-17.35-5.95-42.93-6.16-61l-0.09-23c1.23-16.77 3.08-33.59 6.97-50l21.12-65 20.32-57c3-6.32 8.4-15.67 16.68-14.38 7.49 1.17 18.99 15.69 25 21.29 15.47 14.41 34.42 26.03 52 37.76 8.55 5.7 26.24 17.7 35 21.46 13.68 5.87 40.72 10.37 56 12.95 17.1 2.89 34.6 6.89 52 6.92 23.95 0.04 54.69-2.31 78-7.65 25.67-5.88 43.86-12.52 61.41-33.35 6.27-7.44 12.39-15.96 13.26-26 1.12-12.91-10.17-20.51-19.67-26.59-15.78-10.1-33.51-31.28-41.14-48.41l-9.85-22c-2-4.82-3.66-10.1-8.1-13.3-3.93-2.83-8.33-2.69-12.91-2.7-15.79-0.02-36.79 1.99-51-4.78-9.57-4.56-16.6-10.8-15.91-22.22 1.03-16.79 20.89-41.32 33.91-50.84 6.55-4.79 18.74-10.75 23.67-16.25 4.7-5.24 6.48-11.87 9.65-17.91 0 0 17.01-31 17.01-31 5.76-9.89 21.21-24.54 29.67-33 12.23-12.23 21.57-21.41 40-20.99 15.04 0.35 24.82 11.47 37 12.35 3.8 0.28 9.51-1.71 13-3.23 22.76-9.94 26.45-32.48 53-39.61zm93 50.92c-7.09 1.69-25.53 14.92-33 19.14l-58 30.99c-14.15 6.05-29.22 9.75-44 13.85l-67 14.47-15 1.2-29 2-8 0.87c-7.75 0.3-9.75-1.58-19.38 0.04-4.38 4.41-9.5 22.62-9.87 29.38 2.62 2.84 9.68 2.69 13.25 2.61l22-1.9 34-2.38 40-8.83 31-6.77 25-7.39c15.65-4.7 42.12-10.98 55.88-17.84l37.12-21.46c8.32-4.83 34.78-22.72 41.44-28.8-5.56-6.2-11.99-15.14-16.44-19.18zm-7.91 217.56c-5.54-6.09-16.69-10.24-23.09-13l-34-16.25c-5.91-2.95-14.44-7.5-21-8.2-6.71-0.71-10.59 3.08-15 7.45l-10.09 11-11.33 12c-2.35 2.7-16.73 18.25-12.58 17.91 0 0 27-4.3 27-4.3s45-5.61 45-5.61h32c6.74 0 16.55 0.55 23.09-1z" stroke="#000"/>
 <path transform="scale(.9375)" d="m534.28 303.04c0-0.61449 1.9882-3.6247 4.3477-6.5824 3.7244-4.6687 8.0291-9.5001 15.582-17.489 3.0655-3.2422 8.146-8.6971 11.29-12.122 8.249-8.9857 10.859-11.368 14.007-12.784 2.0846-0.93803 2.8113-1.0781 5.5856-1.0769 2.3688 1e-3 2.7458 0.0451 4.7325 0.5525 4.0326 1.03 7.8455 2.5987 15.692 6.4563 11.548 5.6771 39.647 19.005 43.912 20.828 7.4313 3.1765 11.152 5.0627 14.788 7.4968 1.5386 1.03 3.5881 2.6376 4.1213 3.2327 0.29551 0.32979 0.29189 0.33937-0.16606 0.43943-0.25748 0.0563-1.3275 0.22574-2.3778 0.37662-1.689 0.24264-5.0456 0.28574-29.059 0.37309l-27.15 0.0988-23.331 2.9462c-20.939 2.6441-24.773 3.1758-37.398 5.1862-7.737 1.232-14.182 2.24-14.322 2.24-0.1402 0-0.25491-0.0777-0.25491-0.17267z" fill="#f60" stroke="#eeff30" stroke-opacity=".69076" stroke-width=".16605"/>
 <circle cx="356.66" cy="230.29" r=".20781" fill="#f2f2f2" stroke="#000" stroke-width=".9375"/>
 <path transform="scale(.9375)" d="m330.3 766.46c-0.2535-0.25349-9.8743-0.6995-21.379-0.99111-19.116-0.48452-25.257-0.80719-38.419-2.0185-12.228-1.1254-15.985-1.4584-21.707-1.9242-26.289-2.1398-73.315-12.154-119.5-25.446-21.667-6.2361-29.935-9.1695-40.295-14.297-7.2225-3.5744-9.7979-5.7731-26.5-22.624-19.827-20.002-25.895-27.853-33.881-43.831-16.8-33.612-20.245-51.471-20.414-105.83-0.044428-14.3 0.24143-28.475 0.63524-31.5 0.39381-3.025 0.9069-7.3 1.1402-9.5 1.1353-10.706 5.0703-28.324 9.1507-40.972 19.677-60.989 38.965-116.34 42.908-123.14 3.4853-6.009 8.8609-10.388 12.747-10.383 4.8196 6e-3 8.9792 3.051 22.111 16.188 16.03 16.037 34.198 29.42 77.316 56.956 16.609 10.607 24.264 14.164 38.289 17.791 10.006 2.5882 32.314 7.0112 43 8.5257 1.925 0.27283 6.8444 1.1731 10.932 2.0005s7.6343 1.3022 7.8815 1.055c0.24721-0.2472 1.2126-0.041 2.1454 0.45816 1.5855 0.84855 4.0362 1.2177 18.041 2.7174 11.826 1.2663 43.867 0.71028 62-1.076 2.475-0.2438 7.425-0.73312 11-1.0874s13.061-1.952 21.08-3.5506c33.504-6.679 50.471-14.634 66.518-31.185 13.622-14.05 19.335-24.411 19.378-35.146 0.0422-10.411-4.4519-16.391-20.663-27.492-11.228-7.6888-26.607-23.416-34.669-35.455-4.9654-7.4141-22.644-43.931-22.644-46.773 0-0.5122-1.735-2.6662-3.8554-4.7867l-3.8554-3.8554 12.605-0.61049c24.645-1.1936 81.439-15.024 124.27-30.261 11.364-4.0429 31.164-10.489 44-14.324 52.994-15.833 74.949-23.108 84.999-28.162 19.682-9.8997 36.269-20.259 48.899-30.539 8.4705-6.8946 28.838-19.574 30.145-18.767 0.43834 0.27091 0.79698 1.1978 0.79698 2.0598 0 0.86196 2.208 5.6729 4.9066 10.691 7.5497 14.039 13.757 34.236 15.713 51.124 0.2548 2.2 0.67393 5.8 0.93139 8 0.77272 6.6027 0.47474 22.695-0.53512 28.9-0.52019 3.1962-0.87592 6.1011-0.79052 6.4555s-0.15291 1.9943-0.52957 3.6443c-0.37665 1.65-0.88796 5.025-1.1362 7.5-0.86992 8.6722-4.5975 27.017-7.1566 35.22-1.4207 4.5541-5.6929 15.797-9.4938 24.984-8.5437 20.651-9.9188 25.64-10.596 38.444-0.64184 12.142 1.4556 24.259 5.5139 31.852 5.2054 9.7399 26.667 29.001 57.259 51.386 7.537 5.5152 10.06 8.2593 20.642 22.449 10.055 13.483 13.632 19.322 21.556 35.19 17.314 34.672 18.741 40.742 18.796 79.942 0.0233 16.577-0.42001 30.89-1.0673 34.46-3.684 20.316-15.624 42.932-29.538 55.948-9.8285 9.1941-28.965 21.122-58.789 36.643-30.885 16.073-48.798 22.581-79.89 29.025-12.263 2.5414-41.421 8.8915-64.796 14.111-40.919 9.1373-67.899 14.405-85.599 16.713-2.2544 0.29396-9.5021 1.4563-16.106 2.5831-10.477 1.7875-21.482 3.1316-26.295 3.2116-0.825 0.0137-5.55 0.45671-10.5 0.98446s-11.25 1.1546-14 1.393-7.25 0.65925-10 0.93516c-4.8586 0.48749-12.227 1.1307-23.5 2.0515-13.469 1.1002-33.3 2.0269-63.812 2.9822-9.5219 0.29811-21.276 0.73913-26.121 0.98004s-9.0154 0.23061-9.2689-0.0229zm225.7-465.5c7.15-1.1752 14.35-2.292 16-2.4818 3.59-0.41298 11.833-1.4222 16-1.9588 4.7818-0.61583 12.662-1.5696 17-2.0576 2.2-0.24749 17.575-0.56564 34.168-0.70702 16.592-0.14137 30.482-0.57146 30.865-0.95576 1.0121-1.0136-4.244-5.3399-10.033-8.2581-11.312-5.7026-54.566-26.045-62-29.159-8.9351-3.7426-14.837-4.2676-20.068-1.7852-1.8538 0.87967-10.359 9.1309-18.901 18.336-17.479 18.837-25.531 28.505-25.531 30.658 0 1.7569 3.3763 1.5121 22.5-1.6312z" fill="#ffd42a"/>
 <path transform="scale(.9375)" d="m303.41 764.91c-26.502-1.0061-62.38-4.3274-80.871-7.4865-20.859-3.5637-51.953-10.66-78.713-17.963-28.425-7.7579-41.701-12.152-53.085-17.569-8.2119-3.9079-9.8126-5.2358-26.249-21.776-24.316-24.469-31.032-33.922-41.61-58.564-10.461-24.37-13.195-40.628-14.048-83.55-1.0482-52.715 1.3741-64.448 31.483-152.5 19.087-55.817 21.658-62.079 27.65-67.34 4.2527-3.7339 8.4585-4.1104 13.254-1.1863 1.7736 1.0814 8.3734 6.8962 14.666 12.922 16.302 15.61 28.709 25.178 56.609 43.654 30.704 20.334 39.573 25.397 51.221 29.241 13.619 4.4942 58.986 13.32 86.779 16.882 22.226 2.8487 70.581 0.28399 97.7-5.1819 36.928-7.4428 54.827-16.581 72.451-36.991 9.5487-11.058 13.249-18.776 13.697-28.574 0.5407-11.806-2.9365-16.834-20.349-29.428-9.4517-6.8364-24.222-21.402-30.942-30.514-4.6763-6.3401-18.672-33.123-24.039-46.005-1.4849-3.5633-4.0372-7.8793-5.6718-9.5912l-2.972-3.1124 3.1878-0.63756c1.7533-0.35067 5.4941-0.63766 8.3128-0.63777 20.033-7.6e-4 77.611-14.133 128.62-31.571 10.175-3.4781 36.866-11.986 59.314-18.905 22.448-6.9199 45.609-14.382 51.469-16.584 18.239-6.8509 43.364-21.103 59.717-33.874 7.5576-5.9022 19.349-13.851 26.5-17.863l5.5-3.0862 6.1822 13.203c7.0401 15.036 10.219 24.185 13.513 38.89 2.0293 9.0601 2.2986 12.862 2.2514 31.791-0.0462 18.556-0.41734 23.622-2.7107 37-3.8739 22.598-6.5632 32.082-15.703 55.381-4.5054 11.485-8.823 23.86-9.5946 27.5-2.9328 13.836-1.2468 34.595 3.595 44.263 2.8036 5.5983 22.404 24.945 35.984 35.519 5.766 4.4895 14.759 11.475 19.984 15.522 10.169 7.8779 18.475 17.405 29.481 33.815 11.49 17.131 26.26 47.749 29.909 62 4.0774 15.922 4.371 67.526 0.47508 83.5-2.4344 9.9816-12.062 29.879-18.655 38.554-5.9321 7.8057-12.317 13.698-22.327 20.608-17.819 12.298-58.78 33.979-79.883 42.282-15.485 6.0926-27.336 9.2547-65.5 17.478-16.5 3.5553-41.25 8.9337-55 11.952-33.286 7.3064-51.504 10.799-78.5 15.05-24.109 3.7964-29.992 4.5055-62.5 7.5341-35.714 3.3272-45.797 3.9919-84 5.5376-39.5 1.5982-44.656 1.626-76.586 0.41386zm249.09-462.93c35.505-5.6602 50.749-7.0588 83.685-7.6779 17.702-0.33276 32.777-1.0002 33.5-1.4833 2.2915-1.5305-4.744-6.4735-19.185-13.479-19.416-9.4189-52.919-24.839-56.899-26.189-4.6741-1.5846-12.646-1.4456-15.9 0.27717-4.5325 2.3995-35.456 34.98-41.976 44.225-4.9587 7.0313-3.1367 7.5013 16.775 4.327z" fill="#ffd42a"/>
</svg>
