<?xml version="1.0" encoding="UTF-8" standalone="no"?>
<!DOCTYPE svg PUBLIC "-//W3C//DTD SVG 20010904//EN"
              "http://www.w3.org/TR/2001/REC-SVG-20010904/DTD/svg10.dtd">

<svg xmlns="http://www.w3.org/2000/svg"
     width="13.3333in" height="9.47778in"
     viewBox="0 0 1200 853">
  <path id="Selection"
        fill="black" stroke="black" stroke-width="1"
        d="M 611.00,46.23
           C 616.28,45.73 621.68,45.98 627.00,46.23
             642.37,46.07 665.35,57.24 678.00,65.75
             684.16,69.89 693.56,79.11 699.00,81.59
             706.46,84.98 716.44,78.77 724.00,76.34
             736.56,72.32 758.15,68.78 771.00,71.90
             779.10,73.87 786.56,77.78 789.60,86.00
             791.13,90.13 791.05,93.68 791.00,98.00
             790.80,115.23 779.34,128.16 767.96,140.00
             764.44,143.67 753.99,151.00 753.20,155.00
             752.60,158.08 754.88,162.31 756.26,165.00
             759.69,171.71 763.70,177.85 766.31,185.00
             772.61,202.31 776.21,227.54 776.00,246.00
             776.00,246.00 768.57,294.00 768.57,294.00
             768.57,294.00 761.57,314.00 761.57,314.00
             761.57,314.00 757.49,325.00 757.49,325.00
             754.89,330.82 752.90,332.76 750.52,340.00
             746.05,353.55 744.95,370.11 748.24,384.00
             753.95,408.15 788.44,422.91 805.99,438.30
             812.08,443.64 819.28,454.36 824.42,461.00
             824.42,461.00 837.45,478.00 837.45,478.00
             837.45,478.00 850.42,504.00 850.42,504.00
             856.32,517.56 862.82,534.01 863.00,549.00
             863.00,549.00 863.00,591.00 863.00,591.00
             862.98,603.62 855.78,622.90 849.69,634.00
             838.13,655.06 822.47,663.02 803.00,674.60
             776.73,690.23 748.59,704.05 719.00,712.26
             719.00,712.26 687.00,718.45 687.00,718.45
             687.00,718.45 653.00,725.88 653.00,725.88
             653.00,725.88 630.00,732.35 630.00,732.35
             630.00,732.35 597.00,738.42 597.00,738.42
             597.00,738.42 571.00,743.56 571.00,743.56
             571.00,743.56 563.00,744.29 563.00,744.29
             563.00,744.29 539.00,747.72 539.00,747.72
             539.00,747.72 513.00,750.17 513.00,750.17
             513.00,750.17 492.00,753.06 492.00,753.06
             492.00,753.06 483.00,753.06 483.00,753.06
             483.00,753.06 474.00,754.83 474.00,754.83
             474.00,754.83 440.00,756.00 440.00,756.00
             440.00,756.00 425.00,757.00 425.00,757.00
             425.00,757.00 411.00,757.00 411.00,757.00
             411.00,757.00 380.00,759.00 380.00,759.00
             380.00,759.00 361.00,759.00 361.00,759.00
             361.00,759.00 349.00,759.95 349.00,759.95
             349.00,759.95 332.00,759.95 332.00,759.95
             332.00,759.95 293.00,752.59 293.00,752.59
             293.00,752.59 272.00,749.57 272.00,749.57
             272.00,749.57 251.00,745.44 251.00,745.44
             251.00,745.44 237.00,743.49 237.00,743.49
             237.00,743.49 194.00,731.02 194.00,731.02
             178.80,726.35 155.62,721.20 143.00,711.47
             143.00,711.47 127.00,696.00 127.00,696.00
             104.77,673.77 99.96,667.48 87.58,639.00
             87.58,639.00 82.36,627.00 82.36,627.00
             78.52,615.35 75.02,580.76 74.92,568.00
             74.92,568.00 74.92,558.00 74.92,558.00
             74.44,553.90 73.86,552.56 74.04,548.00
             74.04,548.00 74.91,540.00 74.91,540.00
             76.97,510.06 80.56,488.43 90.95,460.00
             90.95,460.00 117.58,382.00 117.58,382.00
             120.12,375.26 126.95,357.50 133.09,354.17
             140.82,349.99 146.58,358.17 151.09,363.00
             165.11,378.03 177.72,388.37 195.00,399.32
             208.78,408.05 236.85,428.48 250.00,434.13
             262.29,439.41 287.27,443.96 301.00,446.25
             337.77,452.37 340.31,454.45 379.00,454.00
             379.00,454.00 396.00,452.04 396.00,452.04
             420.33,450.98 458.14,444.23 479.00,431.54
             484.63,428.11 488.38,424.60 493.00,420.00
             502.87,410.17 513.96,397.05 512.90,382.00
             511.88,367.38 499.15,362.65 489.00,355.90
             486.03,353.92 477.91,346.61 475.43,343.91
             475.43,343.91 456.45,320.00 456.45,320.00
             456.45,320.00 443.23,291.00 443.23,291.00
             440.53,285.03 438.48,275.25 432.00,272.74
             429.75,271.87 426.42,272.00 424.00,272.00
             424.00,272.00 392.00,272.00 392.00,272.00
             384.91,271.99 379.65,271.23 373.00,268.55
             367.64,266.39 360.18,262.75 356.85,257.96
             351.83,250.74 354.15,240.20 358.03,233.00
             366.13,217.97 376.54,203.58 391.00,194.08
             397.86,189.57 409.24,184.48 413.89,177.91
             416.52,174.21 418.68,167.45 420.78,163.00
             420.78,163.00 439.44,129.00 439.44,129.00
             445.11,120.92 456.83,109.17 464.00,102.00
             476.61,89.39 487.51,76.19 507.00,77.04
             526.47,77.89 534.92,94.67 553.00,88.30
             581.18,78.37 585.07,52.24 611.00,46.23 Z
           M 698.00,98.56
           C 690.05,100.76 684.18,106.73 677.00,110.69
             677.00,110.69 619.00,142.52 619.00,142.52
             601.93,150.64 575.63,157.72 557.00,162.37
             557.00,162.37 511.00,173.57 511.00,173.57
             511.00,173.57 462.00,177.00 462.00,177.00
             462.00,177.00 447.00,177.99 447.00,177.99
             440.13,177.83 434.02,175.06 428.10,180.28
             423.81,184.05 419.71,195.33 418.52,201.00
             417.95,203.67 417.62,207.30 419.60,209.49
             422.35,212.54 429.17,212.04 433.00,212.00
             433.00,212.00 443.00,211.09 443.00,211.09
             443.00,211.09 469.00,209.17 469.00,209.17
             469.00,209.17 491.00,207.56 491.00,207.56
             491.00,207.56 529.00,198.88 529.00,198.88
             529.00,198.88 562.00,191.63 562.00,191.63
             562.00,191.63 585.00,184.72 585.00,184.72
             602.14,179.56 627.91,173.52 643.00,165.74
             643.00,165.74 663.00,154.28 663.00,154.28
             663.00,154.28 693.00,136.67 693.00,136.67
             698.31,133.13 708.59,126.64 712.82,122.56
             720.44,115.21 717.58,110.60 710.98,104.02
             709.00,102.04 706.66,99.74 704.00,98.56
             701.75,97.89 700.27,98.14 698.00,98.56 Z
           M 696.00,315.00
           C 694.29,309.51 690.97,308.59 686.00,306.31
             686.00,306.31 662.00,295.58 662.00,295.58
             662.00,295.58 628.00,278.86 628.00,278.86
             622.47,276.42 616.03,273.56 610.00,276.01
             605.65,277.77 602.99,281.67 599.92,285.00
             599.92,285.00 584.09,302.00 584.09,302.00
             584.09,302.00 571.04,316.00 571.04,316.00
             569.48,317.67 566.81,320.42 566.74,322.85
             566.65,326.26 570.76,325.87 573.00,325.56
             573.00,325.56 596.00,321.41 596.00,321.41
             596.00,321.41 635.00,316.00 635.00,316.00
             635.00,316.00 649.00,316.00 649.00,316.00
             658.98,316.00 688.18,316.90 696.00,315.00 Z" />
</svg>
