<?xml version="1.0" encoding="UTF-8" standalone="no"?>
<!DOCTYPE svg PUBLIC "-//W3C//DTD SVG 20010904//EN"
              "http://www.w3.org/TR/2001/REC-SVG-20010904/DTD/svg10.dtd">

<svg xmlns="http://www.w3.org/2000/svg"
     width="8.93333in" height="8.03333in"
     viewBox="0 0 804 723">
  <path id="Selection"
        fill="black" stroke="black" stroke-width="1"
        d="M 543.00,5.52
           C 566.54,1.79 590.42,10.97 610.00,23.44
             616.70,27.70 627.17,37.80 633.00,40.01
             640.73,42.94 650.47,36.98 658.00,34.72
             658.00,34.72 670.00,32.00 670.00,32.00
             687.05,28.66 717.38,25.89 723.95,47.00
             725.13,50.81 725.04,54.07 725.00,58.00
             724.82,73.80 715.52,86.98 704.96,98.00
             700.86,102.29 689.50,110.88 688.52,116.00
             687.81,119.73 690.65,124.83 692.42,128.00
             695.98,134.35 698.44,139.11 700.95,146.00
             706.57,161.48 710.19,187.48 710.00,204.00
             710.00,204.00 706.41,230.00 706.41,230.00
             702.63,252.56 704.40,250.25 696.31,273.00
             688.55,294.81 681.96,300.02 680.18,325.00
             679.95,328.28 681.92,343.27 684.52,349.00
             693.83,369.54 745.34,402.87 747.92,406.00
             747.92,406.00 771.07,437.00 771.07,437.00
             771.07,437.00 786.85,469.00 786.85,469.00
             791.82,480.62 796.85,495.28 797.00,508.00
             797.00,508.00 797.00,551.00 797.00,551.00
             796.73,573.57 782.98,602.16 766.00,616.70
             753.90,627.06 729.50,639.82 715.00,647.86
             698.05,657.26 672.74,667.91 654.00,672.85
             654.00,672.85 628.00,678.00 628.00,678.00
             628.00,678.00 589.00,686.42 589.00,686.42
             589.00,686.42 535.00,698.61 535.00,698.61
             535.00,698.61 473.00,708.72 473.00,708.72
             473.00,708.72 447.00,711.16 447.00,711.16
             447.00,711.16 417.00,714.00 417.00,714.00
             417.00,714.00 394.00,715.92 394.00,715.92
             394.00,715.92 373.00,716.96 373.00,716.96
             373.00,716.96 345.00,718.00 345.00,718.00
             345.00,718.00 314.69,718.69 314.69,718.69
             314.69,718.69 266.55,717.27 266.55,717.27
             266.55,717.27 224.00,713.43 224.00,713.43
             224.00,713.43 204.00,710.57 204.00,710.57
             204.00,710.57 183.00,706.43 183.00,706.43
             183.00,706.43 140.00,696.02 140.00,696.02
             120.83,690.13 97.29,685.27 80.00,675.69
             72.58,671.57 66.04,664.04 60.00,658.00
             45.55,643.55 37.01,635.46 27.32,617.00
             23.66,610.02 15.10,590.38 13.16,583.00
             8.58,565.65 7.21,540.07 7.00,522.00
             7.00,522.00 6.91,499.00 6.91,499.00
             8.14,482.23 9.99,465.41 13.88,449.00
             13.88,449.00 35.00,384.00 35.00,384.00
             35.00,384.00 55.32,327.00 55.32,327.00
             58.32,320.68 63.72,311.33 72.00,312.62
             79.49,313.79 90.99,328.31 97.00,333.91
             112.47,348.32 131.42,359.94 149.00,371.67
             157.55,377.37 175.24,389.37 184.00,393.13
             197.68,399.00 224.72,403.50 240.00,406.08
             257.10,408.97 274.60,412.97 292.00,413.00
             315.95,413.04 346.69,410.69 370.00,405.35
             395.67,399.47 413.86,392.83 431.41,372.00
             437.68,364.56 443.80,356.04 444.67,346.00
             445.79,333.09 434.50,325.49 425.00,319.41
             409.22,309.31 391.49,288.13 383.86,271.00
             383.86,271.00 374.01,249.00 374.01,249.00
             372.01,244.18 370.35,238.90 365.91,235.70
             361.98,232.87 357.58,233.01 353.00,233.00
             337.21,232.98 316.21,234.99 302.00,228.22
             292.43,223.66 285.40,217.42 286.09,206.00
             287.12,189.21 306.98,164.68 320.00,155.16
             326.55,150.37 338.74,144.41 343.67,138.91
             348.37,133.67 350.15,127.04 353.32,121.00
             353.32,121.00 370.33,90.00 370.33,90.00
             376.09,80.11 391.54,65.46 400.00,57.00
             412.23,44.77 421.57,35.59 440.00,36.01
             455.04,36.36 464.82,47.48 477.00,48.36
             480.80,48.64 486.51,46.65 490.00,45.13
             512.76,35.19 516.45,12.65 543.00,5.52 Z
           M 636.00,56.44
           C 628.91,58.13 610.47,71.36 603.00,75.58
             603.00,75.58 545.00,106.57 545.00,106.57
             530.85,112.62 515.78,116.32 501.00,120.42
             501.00,120.42 434.00,134.89 434.00,134.89
             434.00,134.89 419.00,136.09 419.00,136.09
             419.00,136.09 390.00,138.09 390.00,138.09
             390.00,138.09 382.00,138.96 382.00,138.96
             374.25,139.26 372.25,137.38 362.62,139.00
             358.24,143.41 353.12,161.62 352.75,168.38
             355.37,171.22 362.43,171.07 366.00,170.99
             366.00,170.99 388.00,169.09 388.00,169.09
             388.00,169.09 422.00,166.71 422.00,166.71
             422.00,166.71 462.00,157.88 462.00,157.88
             462.00,157.88 493.00,151.11 493.00,151.11
             493.00,151.11 518.00,143.72 518.00,143.72
             533.65,139.02 560.12,132.74 573.88,125.88
             573.88,125.88 611.00,104.42 611.00,104.42
             619.32,99.59 645.78,81.70 652.44,75.62
             646.88,69.42 640.45,60.48 636.00,56.44 Z
           M 628.09,274.00
           C 622.55,267.91 611.40,263.76 605.00,261.00
             605.00,261.00 571.00,244.75 571.00,244.75
             565.09,241.80 556.56,237.25 550.00,236.55
             543.29,235.84 539.41,239.63 535.00,244.00
             535.00,244.00 524.91,255.00 524.91,255.00
             524.91,255.00 513.58,267.00 513.58,267.00
             511.23,269.70 496.85,285.25 501.00,284.91
             501.00,284.91 528.00,280.61 528.00,280.61
             528.00,280.61 573.00,275.00 573.00,275.00
             573.00,275.00 605.00,275.00 605.00,275.00
             611.74,275.00 621.55,275.55 628.09,274.00 Z
           M 504.36,278.91" />
</svg>
