<?xml version="1.0" encoding="UTF-8" standalone="no"?>
<!DOCTYPE svg PUBLIC "-//W3C//DTD SVG 20010904//EN"
              "http://www.w3.org/TR/2001/REC-SVG-20010904/DTD/svg10.dtd">

<svg xmlns="http://www.w3.org/2000/svg"
     width="475.868mm" height="73.6664mm"
     viewBox="0 0 1686 261">
  <path id="Selection"
        fill="blue" stroke="none" stroke-width="1"
        d="M 1036.00,9.46
           C 1036.00,9.46 1079.00,11.00 1079.00,11.00
             1079.00,11.00 1125.00,16.56 1125.00,16.56
             1125.00,16.56 1152.00,19.80 1152.00,19.80
             1164.98,22.35 1177.76,27.01 1191.00,27.91
             1202.47,28.69 1213.86,25.04 1225.00,23.08
             1240.44,20.37 1267.73,14.02 1282.00,14.00
             1282.00,14.00 1299.00,14.00 1299.00,14.00
             1305.24,14.08 1321.03,16.42 1327.00,18.21
             1335.69,20.81 1338.20,24.34 1348.00,23.96
             1348.00,23.96 1378.00,20.00 1378.00,20.00
             1378.00,20.00 1416.00,20.00 1416.00,20.00
             1426.65,20.02 1436.50,24.35 1447.00,25.88
             1447.00,25.88 1457.00,25.88 1457.00,25.88
             1457.00,25.88 1469.00,27.17 1469.00,27.17
             1469.00,27.17 1484.00,28.92 1484.00,28.92
             1484.00,28.92 1495.00,28.00 1495.00,28.00
             1495.00,28.00 1571.00,19.85 1571.00,19.85
             1571.00,19.85 1595.00,17.00 1595.00,17.00
             1595.00,17.00 1608.00,17.00 1608.00,17.00
             1608.00,17.00 1627.00,18.00 1627.00,18.00
             1632.31,18.07 1637.72,19.67 1643.00,18.66
             1648.33,17.64 1662.12,7.29 1663.96,18.02
             1663.96,18.02 1663.96,23.00 1663.96,23.00
             1663.96,23.00 1663.96,196.00 1663.96,196.00
             1663.96,196.00 1663.96,239.00 1663.96,239.00
             1663.84,247.70 1660.66,247.98 1653.00,248.00
             1653.00,248.00 398.00,248.00 398.00,248.00
             398.00,248.00 104.00,248.00 104.00,248.00
             104.00,248.00 37.00,248.00 37.00,248.00
             31.92,248.00 18.80,249.55 16.02,244.85
             14.81,242.80 15.00,239.35 15.00,237.00
             15.00,237.00 15.00,70.00 15.00,70.00
             15.00,70.00 15.00,31.00 15.00,31.00
             15.00,28.07 14.65,23.96 16.74,21.65
             19.39,18.70 24.39,19.01 28.00,19.00
             28.00,19.00 43.00,19.00 43.00,19.00
             53.56,19.13 62.30,23.86 72.00,27.31
             80.09,30.19 88.39,31.57 97.00,31.26
             116.53,30.54 126.49,23.79 145.00,24.00
             157.27,24.15 167.99,30.36 175.00,29.66
             184.77,28.70 212.79,15.20 230.00,15.00
             230.00,15.00 268.00,16.00 268.00,16.00
             268.00,16.00 311.00,21.56 311.00,21.56
             311.00,21.56 333.00,24.20 333.00,24.20
             347.27,27.03 361.36,31.17 376.00,31.00
             392.83,30.80 426.44,22.38 444.00,19.43
             454.60,17.65 464.31,17.88 475.00,18.00
             480.86,18.07 494.33,20.15 500.00,21.75
             506.37,23.53 511.00,26.43 518.00,26.91
             525.17,27.40 533.72,24.60 541.00,24.09
             541.00,24.09 587.00,23.00 587.00,23.00
             598.43,23.02 604.61,26.36 615.00,27.88
             615.00,27.88 624.00,27.88 624.00,27.88
             624.00,27.88 636.00,29.17 636.00,29.17
             640.34,29.60 646.97,31.10 651.00,30.82
             651.00,30.82 664.00,30.00 664.00,30.00
             664.00,30.00 689.00,27.15 689.00,27.15
             689.00,27.15 726.00,22.58 726.00,22.58
             734.85,21.20 745.19,19.01 754.00,19.00
             754.00,19.00 783.00,19.00 783.00,19.00
             783.00,19.00 798.00,19.96 798.00,19.96
             807.02,19.56 810.16,14.63 818.00,12.61
             821.73,11.65 834.45,11.95 839.00,12.00
             851.03,12.15 862.79,18.09 874.00,21.92
             881.12,24.35 888.52,25.25 896.00,25.63
             896.00,25.63 903.00,25.09 903.00,25.09
             903.00,25.09 939.00,18.15 939.00,18.15
             939.00,18.15 950.00,18.15 950.00,18.15
             963.44,18.16 972.17,24.58 982.00,23.91
             988.70,23.45 999.37,19.46 1006.00,17.34
             1006.00,17.34 1036.00,9.46 1036.00,9.46 Z
           M 16.14,244.83
           C 17.12,244.47 1663.61,238.61 1664.05,239.06" />
</svg>
